<?xml version="1.0" encoding="utf-8"?>
<svg version="1.1" xmlns="http://www.w3.org/2000/svg" xmlns:xlink="http://www.w3.org/1999/xlink" x="0px" y="0px"
	 viewBox="0 0 11200 11200" fill="white" xml:space="preserve">
<g>
	<path class="st0" d="M298.8,7301.2c-21.4,0-40.1-13.8-46.5-34.3C84.9,6729.2,0,6168.3,0,5600c0-986.4,260-1956.3,752-2804.8
		c12.9-22.2,34-24.6,42.5-24.6c8.4,0,29.2,2.4,41.9,24.2l2560.8,4433.5c12.7,21.9,4.2,41.3,0,48.6c-4.2,7.3-16.8,24.3-42.1,24.3
		H298.8z"/>
	<path class="st0" d="M3048.7,4526.3c-8.4,0-29.4-2.4-42-24.3L1480,1857.7c-10.7-18.6-8.1-41.7,6.5-57.5
		C2005.7,1238.4,2621.6,795.8,3317.1,485C4036.9,163.2,4805,0,5600,0h2c24.8,0,37.1,16.8,41.3,24c4.3,7.4,12.8,26.8,0.1,48.9
		L3090.8,4502C3078.2,4523.9,3057.2,4526.3,3048.7,4526.3z"/>
	<path class="st0" d="M10405.9,8428.7c-8.4,0-29.3-2.4-41.9-24.2L7805.2,3975.6c-12.7-21.9-4.2-41.3,0-48.6
		c4.2-7.3,16.8-24.3,42.1-24.3h3055.1c21.5,0,40.2,13.8,46.5,34.3c166.6,536.5,251.1,1096,251.1,1662.9
		c0,986.1-259.9,1955.7-751.6,2804.1C10435.5,8426.3,10414.4,8428.7,10405.9,8428.7C10405.9,8428.7,10405.9,8428.7,10405.9,8428.7z"
		/>
	<path class="st0" d="M5292.4,2878.1c-25.3,0-37.9-17-42.1-24.3c-4.2-7.3-12.7-26.7,0-48.6L6778.1,159c8.6-15,24.9-24.3,42.3-24.3
		c3.6,0,7.3,0.4,10.9,1.2c1519.6,340.9,2839.8,1313.6,3622,2668.5c12.5,21.6,4.1,40.7-0.1,48c-4.2,7.4-16.9,24.5-42.2,24.5
		L5292.4,2878.1L5292.4,2878.1z"/>
	<path class="st0" d="M4373.9,11064c-3.6,0-7.3-0.4-10.9-1.2c-1515.5-341.7-2832.8-1312.5-3614.1-2663.4c-12.5-21.5-4.1-40.7,0.1-48
		c4.2-7.4,16.8-24.5,42.2-24.5l5109.9-4.9c25.4,0,37.9,17,42.1,24.3c4.2,7.3,12.6,26.6,0,48.6l-1527,2644.9
		C4407.5,11054.7,4391.4,11064,4373.9,11064L4373.9,11064z"/>
	<path class="st0" d="M5591.8,11200c-24.8,0-37.1-16.9-41.3-24.1c-4.2-7.4-12.7-26.8,0-48.8l2559-4430
		c12.7-21.9,33.6-24.3,42.1-24.3c8.4,0,29.4,2.4,42.1,24.3l1526.9,2644.7c10.7,18.6,8.1,41.7-6.5,57.5
		c-519.3,562-1135.2,1004.7-1830.8,1315.7c-719.9,321.9-1488.1,485.1-2283.2,485.1H5591.8z"/>
</g>
</svg>
