<?xml version="1.0" encoding="utf-8"?>
<!-- Generator: Adobe Illustrator 24.0.2, SVG Export Plug-In . SVG Version: 6.00 Build 0)  -->
<svg version="1.1" id="Layer_1" xmlns:figma="http://www.figma.com/figma/ns"
	 xmlns="http://www.w3.org/2000/svg" xmlns:xlink="http://www.w3.org/1999/xlink" x="0px" y="0px" viewBox="0 0 128 128"
	 style="enable-background:new 0 0 128 128;" xml:space="preserve">
<style type="text/css">
	.st0{fill:#4C4AE4;}
	.st1{fill:#FFFFFF;stroke:#FFFFFF;stroke-width:0.8949;stroke-miterlimit:10;}
</style>
<title>Logo</title>
<g>
	<ellipse transform="matrix(0.7071 -0.7071 0.7071 0.7071 -26.5097 64)" class="st0" cx="64" cy="64" rx="64" ry="64"/>
	<path class="st1" d="M81.1,87.7c-6.7,0-13-2.8-17.5-7.7c-1.5-1.6-1.4-4.1,0.3-5.6c1.6-1.5,4.1-1.4,5.6,0.3c3,3.3,7.2,5.1,11.7,5.1
		c8.7,0,15.8-7.1,15.8-15.8c0-8.7-7.1-15.8-15.8-15.8c-4.1,0-7.9,1.5-10.9,4.3L50.8,75.8c-0.8,0.9-1.9,1.4-3,1.4
		c-1.2,0-2.3-0.5-3-1.4L25.2,52.5c-1.4-1.7-1.2-4.2,0.5-5.6c1.7-1.4,4.2-1.2,5.6,0.5l16.5,19.7l16.3-19.5c0.1-0.2,0.3-0.3,0.4-0.5
		c4.5-4.4,10.4-6.8,16.6-6.8c13.1,0,23.7,10.6,23.7,23.7S94.2,87.7,81.1,87.7z"/>
</g>
</svg>
