<?xml version="1.0" encoding="utf-8"?>
<!-- Generator: Adobe Illustrator 24.0.2, SVG Export Plug-In . SVG Version: 6.00 Build 0)  -->
<svg version="1.1" id="Layer_1" xmlns="http://www.w3.org/2000/svg" xmlns:xlink="http://www.w3.org/1999/xlink" x="0px" y="0px"
	 viewBox="0 0 700 700" style="enable-background:new 0 0 700 700;" xml:space="preserve">
<g>
	<path d="M350,0c-95.1,0-107,0.4-144.3,2.1c-37.3,1.8-62.6,7.6-85,16.3c-23,8.9-42.6,20.9-62,40.4s-31.5,39-40.4,62
		c-8.7,22.3-14.6,47.7-16.3,85C0.3,243,0,254.9,0,350s0.4,107,2.1,144.3c1.8,37.2,7.6,62.6,16.3,85c8.9,23,20.9,42.6,40.4,62
		c19.5,19.4,39,31.5,62,40.4c22.3,8.6,47.7,14.6,85,16.3c37.3,1.8,49.2,2.1,144.3,2.1s107-0.4,144.3-2.1c37.2-1.8,62.7-7.6,85-16.3
		c23-8.9,42.6-20.9,62-40.4c19.4-19.5,31.5-38.9,40.4-62c8.6-22.3,14.6-47.7,16.3-85c1.8-37.3,2.1-49.2,2.1-144.3
		s-0.4-107-2.1-144.3c-1.7-37.2-7.6-62.7-16.3-85c-8.9-23-20.9-42.6-40.4-62c-19.5-19.5-38.9-31.5-62-40.4
		c-22.3-8.7-47.7-14.6-85-16.3C457,0.4,445.1,0,350,0z M350,63c93.4,0,104.6,0.5,141.5,2.1c34.1,1.6,52.6,7.3,65,12.1
		c16.4,6.3,28,13.9,40.3,26.1c12.2,12.3,19.8,23.9,26.1,40.3c4.8,12.3,10.5,30.8,12,65c1.7,36.9,2,48,2,141.5s-0.4,104.6-2.2,141.5
		c-1.8,34.1-7.5,52.6-12.3,65c-6.5,16.4-14,28-26.2,40.3c-12.2,12.2-24,19.8-40.2,26.1c-12.3,4.8-31.1,10.5-65.2,12
		c-37.2,1.7-48.1,2-141.7,2c-93.7,0-104.6-0.4-141.7-2.2c-34.2-1.8-53-7.5-65.2-12.3c-16.6-6.5-28-14-40.2-26.2
		c-12.3-12.2-20.1-24-26.2-40.3c-4.8-12.3-10.5-31.1-12.3-65.2c-1.3-36.8-1.8-48.1-1.8-141.3c0-93.2,0.5-104.6,1.8-141.8
		c1.8-34.1,7.4-52.9,12.3-65.2c6.1-16.6,14-28,26.3-40.3c12.2-12.2,23.6-20.1,40.2-26.2c12.3-4.8,30.7-10.5,64.8-12.3
		c37.2-1.3,48.1-1.7,141.7-1.7C348.7,62.1,350,63,350,63z M350,170.3c-99.3,0-179.7,80.5-179.7,179.7c0,99.3,80.5,179.7,179.7,179.7
		c99.3,0,179.7-80.5,179.7-179.7C529.7,250.7,449.2,170.3,350,170.3z M350,466.7c-64.5,0-116.7-52.2-116.7-116.7
		S285.5,233.3,350,233.3S466.7,285.5,466.7,350S414.5,466.7,350,466.7z M578.8,163.2c0,23.2-18.8,42-42,42c-23.2,0-42-18.8-42-42
		s18.8-42,42-42C560,121.2,578.8,140,578.8,163.2z"/>
</g>
</svg>
