<?xml version="1.0" encoding="utf-8"?>
<svg version="1.1" xmlns="http://www.w3.org/2000/svg" xmlns:xlink="http://www.w3.org/1999/xlink" x="0px" y="0px"
	 viewBox="0 0 700 700" style="enable-background:new 0 0 700 700;" xml:space="preserve">
<g>
	<path d="M18.7,456.3c-1.3,0-2.5-0.9-2.9-2.1C5.3,420.6,0,385.5,0,350c0-61.7,16.3-122.3,47-175.3c0.8-1.4,2.1-1.5,2.7-1.5
		c0.5,0,1.8,0.1,2.6,1.5l160,277.1c0.8,1.4,0.3,2.6,0,3c-0.3,0.5-1,1.5-2.6,1.5H18.7z"/>
	<path d="M190.5,282.9c-0.5,0-1.8-0.1-2.6-1.5L92.5,116.1c-0.7-1.2-0.5-2.6,0.4-3.6c32.5-35.1,70.9-62.8,114.4-82.2
		C252.3,10.2,300.3,0,350,0h0.1c1.5,0,2.3,1,2.6,1.5c0.3,0.5,0.8,1.7,0,3.1L193.2,281.4C192.4,282.7,191.1,282.9,190.5,282.9z"/>
	<path d="M650.4,526.8c-0.5,0-1.8-0.1-2.6-1.5L487.8,248.5c-0.8-1.4-0.3-2.6,0-3c0.3-0.5,1-1.5,2.6-1.5h190.9c1.3,0,2.5,0.9,2.9,2.1
		C694.7,279.6,700,314.6,700,350c0,61.6-16.2,122.2-47,175.3C652.2,526.6,650.9,526.8,650.4,526.8
		C650.4,526.8,650.4,526.8,650.4,526.8z"/>
	<path d="M330.8,179.9c-1.6,0-2.4-1.1-2.6-1.5c-0.3-0.5-0.8-1.7,0-3L423.6,9.9c0.5-0.9,1.6-1.5,2.6-1.5c0.2,0,0.5,0,0.7,0.1
		c95,21.3,177.5,82.1,226.4,166.8c0.8,1.3,0.3,2.5,0,3c-0.3,0.5-1.1,1.5-2.6,1.5L330.8,179.9L330.8,179.9z"/>
	<path d="M273.4,691.5c-0.2,0-0.5,0-0.7-0.1C178,670.1,95.6,609.4,46.8,525c-0.8-1.3-0.3-2.5,0-3c0.3-0.5,1.1-1.5,2.6-1.5l319.4-0.3
		c1.6,0,2.4,1.1,2.6,1.5c0.3,0.5,0.8,1.7,0,3L276,690C275.5,690.9,274.5,691.5,273.4,691.5L273.4,691.5z"/>
	<path d="M349.5,700c-1.5,0-2.3-1.1-2.6-1.5c-0.3-0.5-0.8-1.7,0-3.1l159.9-276.9c0.8-1.4,2.1-1.5,2.6-1.5c0.5,0,1.8,0.1,2.6,1.5
		l95.4,165.3c0.7,1.2,0.5,2.6-0.4,3.6c-32.5,35.1-71,62.8-114.4,82.2c-45,20.1-93,30.3-142.7,30.3H349.5z"/>
</g>
</svg>
