<?xml version="1.0" encoding="utf-8"?>
<!-- Generator: Adobe Illustrator 24.0.2, SVG Export Plug-In . SVG Version: 6.00 Build 0)  -->
<svg version="1.1" id="Layer_1" xmlns="http://www.w3.org/2000/svg" xmlns:xlink="http://www.w3.org/1999/xlink" x="0px" y="0px"
	 viewBox="0 0 700 700" style="enable-background:new 0 0 700 700;" xml:space="preserve">
<g>
	<circle cx="350" cy="386.8" r="152"/>
	<path d="M581.8,0H118.2C52.9,0,0,52.9,0,118.2v463.6C0,647.1,52.9,700,118.2,700h463.6c65.3,0,118.2-52.9,118.2-118.2V118.2
		C700,52.9,647.1,0,581.8,0z M350,599.9c-117.7,0-213.1-95.4-213.1-213.1c0-117.7,95.4-213.1,213.1-213.1
		c117.7,0,213.1,95.4,213.1,213.1C563.1,504.5,467.7,599.9,350,599.9z M580.7,167.6c-26.7,0-48.3-21.6-48.3-48.3S554,71,580.7,71
		c26.7,0,48.3,21.6,48.3,48.3S607.4,167.6,580.7,167.6z"/>
</g>
</svg>
