<svg width="165" height="18" viewBox="0 0 165 18" fill="none" xmlns="http://www.w3.org/2000/svg">
<path d="M2.92647 15.6646C2.92647 16.0546 2.79214 16.384 2.52347 16.6526C2.26347 16.9126 1.93847 17.0426 1.54847 17.0426C1.3578 17.0426 1.1758 17.008 1.00247 16.9386C0.829135 16.8606 0.673136 16.761 0.534469 16.6396C0.404469 16.5183 0.300469 16.3753 0.222469 16.2106C0.144469 16.0373 0.105469 15.8553 0.105469 15.6646V9.54165C0.105469 8.89165 0.231135 8.28064 0.482469 7.70864C0.742469 7.12798 1.09347 6.62531 1.53547 6.20064C1.97747 5.76731 2.4888 5.42498 3.06947 5.17364C3.6588 4.92231 4.27847 4.79664 4.92847 4.79664C5.60447 4.79664 6.23714 4.92664 6.82647 5.18664C7.42447 5.44664 7.9488 5.80198 8.39947 6.25264C8.85014 5.80198 9.37447 5.44664 9.97247 5.18664C10.5791 4.92664 11.2205 4.79664 11.8965 4.79664C12.5551 4.79664 13.1705 4.91798 13.7425 5.16064C14.3145 5.40331 14.8171 5.73698 15.2505 6.16164C15.6838 6.58631 16.0305 7.08031 16.2905 7.64364C16.5505 8.20698 16.6935 8.80931 16.7195 9.45064C16.7195 9.46798 16.7195 9.48964 16.7195 9.51564C16.7281 9.53298 16.7325 9.55031 16.7325 9.56764V15.6646C16.7325 15.8553 16.6935 16.0373 16.6155 16.2106C16.5461 16.3753 16.4465 16.5183 16.3165 16.6396C16.1951 16.761 16.0521 16.8606 15.8875 16.9386C15.7228 17.008 15.5451 17.0426 15.3545 17.0426C15.1551 17.0426 14.9688 17.008 14.7955 16.9386C14.6221 16.8606 14.4705 16.761 14.3405 16.6396C14.2105 16.5183 14.1065 16.3753 14.0285 16.2106C13.9505 16.0373 13.9115 15.8553 13.9115 15.6646V9.60664V9.56764V9.52864C13.8941 9.25131 13.8291 8.99564 13.7165 8.76164C13.6125 8.52764 13.4651 8.32831 13.2745 8.16364C13.0925 7.99031 12.8801 7.85598 12.6375 7.76064C12.3948 7.66531 12.1391 7.61764 11.8705 7.61764C11.5931 7.61764 11.3288 7.66964 11.0775 7.77364C10.8261 7.87764 10.6051 8.02064 10.4145 8.20264C10.2325 8.37598 10.0851 8.58398 9.97247 8.82664C9.86847 9.06931 9.81647 9.32498 9.81647 9.59365V15.6646C9.81647 16.0546 9.68214 16.384 9.41347 16.6526C9.15347 16.9126 8.82847 17.0426 8.43847 17.0426C8.2478 17.0426 8.0658 17.008 7.89247 16.9386C7.71914 16.8606 7.56314 16.761 7.42447 16.6396C7.29447 16.5183 7.19047 16.3753 7.11247 16.2106C7.03447 16.0373 6.99547 15.8553 6.99547 15.6646V9.58064V9.54165C6.9868 9.26431 6.92614 9.00864 6.81347 8.77464C6.70947 8.53198 6.56647 8.32831 6.38447 8.16364C6.20247 7.99031 5.99014 7.85598 5.74747 7.76064C5.5048 7.66531 5.2448 7.61764 4.96747 7.61764C4.69014 7.61764 4.4258 7.66964 4.17447 7.77364C3.9318 7.86898 3.71514 8.00764 3.52447 8.18964C3.34247 8.36298 3.19514 8.56664 3.08247 8.80064C2.97847 9.03464 2.92647 9.28598 2.92647 9.55464V9.56764V15.6646Z" fill="white"/>
<path d="M21.5583 12.2586C21.671 12.588 21.827 12.8826 22.0263 13.1426C22.2343 13.4026 22.4726 13.628 22.7413 13.8186C23.01 14.0006 23.3046 14.1436 23.6253 14.2476C23.946 14.343 24.284 14.3906 24.6393 14.3906C25.532 14.3906 26.234 14.1566 26.7453 13.6886C27.0053 13.5066 27.2523 13.3983 27.4863 13.3636C27.7203 13.329 27.9413 13.3463 28.1493 13.4156C28.2966 13.4676 28.4266 13.55 28.5393 13.6626C28.6606 13.7666 28.7603 13.8836 28.8383 14.0136C28.925 14.1523 28.9856 14.304 29.0203 14.4686C29.0636 14.6246 29.0723 14.785 29.0463 14.9496C29.029 15.1143 28.977 15.279 28.8903 15.4436C28.8123 15.5996 28.691 15.7426 28.5263 15.8726C28.3356 16.046 28.119 16.215 27.8763 16.3796C27.6336 16.5356 27.352 16.6743 27.0313 16.7956C26.7193 16.917 26.364 17.0123 25.9653 17.0816C25.5753 17.1596 25.1333 17.1986 24.6393 17.1986C23.7813 17.1986 22.9753 17.0383 22.2213 16.7176C21.4673 16.3883 20.8086 15.942 20.2453 15.3786C19.682 14.8153 19.2356 14.161 18.9063 13.4156C18.577 12.6616 18.4123 11.8556 18.4123 10.9976C18.4123 10.1396 18.577 9.33365 18.9063 8.57965C19.2356 7.82565 19.682 7.17131 20.2453 6.61664C20.8086 6.05331 21.4673 5.61131 22.2213 5.29064C22.9753 4.96131 23.7813 4.79664 24.6393 4.79664C25.4886 4.79664 26.286 4.95698 27.0313 5.27764C27.7853 5.59831 28.444 6.03598 29.0073 6.59064C29.5793 7.13664 30.03 7.78231 30.3593 8.52765C30.6886 9.27298 30.862 10.0703 30.8793 10.9196C30.8793 11.3183 30.7493 11.6433 30.4893 11.8946C30.238 12.1373 29.9043 12.2586 29.4883 12.2586H21.5583ZM27.9803 9.91864C27.885 9.56331 27.7333 9.24264 27.5253 8.95664C27.3173 8.67064 27.0703 8.42798 26.7843 8.22864C26.4983 8.02931 26.1776 7.87764 25.8223 7.77364C25.4756 7.66964 25.103 7.61764 24.7043 7.61764C24.3056 7.61764 23.9286 7.67398 23.5733 7.78664C23.2266 7.89931 22.9103 8.05531 22.6243 8.25464C22.347 8.45398 22.1086 8.69664 21.9093 8.98265C21.71 9.25998 21.5626 9.57198 21.4673 9.91864H27.9803Z" fill="white"/>
<path d="M44.3599 10.9846V11.0496C44.3512 11.613 44.2732 12.159 44.1259 12.6876C43.9786 13.2076 43.7662 13.6973 43.4889 14.1566C43.2202 14.6073 42.8952 15.019 42.5139 15.3916C42.1412 15.7643 41.7252 16.085 41.2659 16.3536C40.8066 16.6223 40.3126 16.8303 39.7839 16.9776C39.2639 17.125 38.7222 17.1986 38.1589 17.1986C37.3009 17.1986 36.4949 17.0383 35.7409 16.7176C34.9956 16.3883 34.3412 15.942 33.7779 15.3786C33.2232 14.8153 32.7812 14.1566 32.4519 13.4026C32.1312 12.6486 31.9709 11.847 31.9709 10.9976C31.9709 10.1396 32.1312 9.33365 32.4519 8.57965C32.7812 7.82565 33.2232 7.17131 33.7779 6.61664C34.3412 6.05331 34.9956 5.61131 35.7409 5.29064C36.4949 4.96131 37.3009 4.79664 38.1589 4.79664C38.7829 4.79664 39.3766 4.88764 39.9399 5.06964C40.5119 5.24298 41.0449 5.48998 41.5389 5.81064V1.75464C41.5389 1.54664 41.5736 1.35598 41.6429 1.18264C41.7122 1.00064 41.8076 0.844644 41.9289 0.714644C42.0589 0.575977 42.2062 0.471977 42.3709 0.402644C42.5442 0.324644 42.7349 0.285645 42.9429 0.285645C43.1422 0.285645 43.3286 0.324644 43.5019 0.402644C43.6752 0.471977 43.8226 0.575977 43.9439 0.714644C44.0739 0.844644 44.1736 1.00064 44.2429 1.18264C44.3209 1.35598 44.3599 1.54664 44.3599 1.75464V10.9846ZM41.5389 10.9976C41.5389 10.5296 41.4479 10.092 41.2659 9.68464C41.0926 9.26864 40.8499 8.90898 40.5379 8.60564C40.2346 8.30231 39.8792 8.06398 39.4719 7.89064C39.0646 7.70864 38.6269 7.61764 38.1589 7.61764C37.6909 7.61764 37.2532 7.70864 36.8459 7.89064C36.4386 8.06398 36.0789 8.30231 35.7669 8.60564C35.4636 8.90898 35.2252 9.26864 35.0519 9.68464C34.8786 10.092 34.7919 10.5296 34.7919 10.9976C34.7919 11.457 34.8786 11.8946 35.0519 12.3106C35.2252 12.718 35.4636 13.0776 35.7669 13.3896C36.0702 13.693 36.4256 13.9356 36.8329 14.1176C37.2489 14.291 37.6909 14.3776 38.1589 14.3776C38.6269 14.3776 39.0646 14.291 39.4719 14.1176C39.8792 13.9356 40.2346 13.693 40.5379 13.3896C40.8499 13.0776 41.0926 12.718 41.2659 12.3106C41.4479 11.8946 41.5389 11.457 41.5389 10.9976Z" fill="white"/>
<path d="M47.148 2.07964C47.148 1.86298 47.187 1.65931 47.265 1.46864C47.3517 1.27798 47.4643 1.11331 47.603 0.974644C47.7417 0.835977 47.9063 0.727644 48.097 0.649644C48.2877 0.562978 48.487 0.519645 48.695 0.519645C48.903 0.519645 49.1023 0.562978 49.293 0.649644C49.4837 0.727644 49.6483 0.835977 49.787 0.974644C49.9343 1.11331 50.047 1.27798 50.125 1.46864C50.2117 1.65931 50.255 1.86298 50.255 2.07964C50.255 2.28764 50.2117 2.48698 50.125 2.67764C50.047 2.85964 49.9343 3.01998 49.787 3.15864C49.6483 3.29731 49.4837 3.40998 49.293 3.49664C49.1023 3.57464 48.903 3.61365 48.695 3.61365C48.487 3.61365 48.2877 3.57464 48.097 3.49664C47.9063 3.40998 47.7417 3.29731 47.603 3.15864C47.4643 3.01998 47.3517 2.85964 47.265 2.67764C47.187 2.48698 47.148 2.28764 47.148 2.07964ZM50.112 15.6386C50.112 15.838 50.073 16.0243 49.995 16.1976C49.9257 16.3623 49.826 16.5096 49.696 16.6396C49.5747 16.761 49.4273 16.8606 49.254 16.9386C49.0807 17.008 48.8987 17.0426 48.708 17.0426C48.5173 17.0426 48.3353 17.008 48.162 16.9386C47.9887 16.8606 47.837 16.761 47.707 16.6396C47.577 16.5096 47.473 16.3623 47.395 16.1976C47.3257 16.0243 47.291 15.838 47.291 15.6386V6.35664C47.291 6.16598 47.33 5.98831 47.408 5.82364C47.486 5.65031 47.59 5.49864 47.72 5.36864C47.85 5.23864 48.0017 5.13898 48.175 5.06964C48.3483 4.99164 48.5347 4.95264 48.734 4.95264C48.9247 4.95264 49.1023 4.99164 49.267 5.06964C49.4403 5.13898 49.5877 5.23864 49.709 5.36864C49.839 5.49864 49.9387 5.65031 50.008 5.82364C50.0773 5.98831 50.112 6.16598 50.112 6.35664V15.6386Z" fill="white"/>
<path d="M52.2072 10.9976C52.2072 10.1396 52.3719 9.33798 52.7012 8.59264C53.0306 7.83864 53.4769 7.17998 54.0402 6.61664C54.6036 6.05331 55.2579 5.61131 56.0032 5.29064C56.7572 4.96131 57.5589 4.79664 58.4082 4.79664C59.2662 4.79664 60.0679 4.96131 60.8132 5.29064C61.5672 5.61131 62.2216 6.05331 62.7762 6.61664C63.3396 7.17998 63.7816 7.83864 64.1022 8.59264C64.4316 9.33798 64.5962 10.1396 64.5962 10.9976V15.5996C64.5962 15.799 64.5572 15.9853 64.4792 16.1586C64.4099 16.332 64.3102 16.4836 64.1802 16.6136C64.0502 16.7436 63.8942 16.8476 63.7122 16.9256C63.5389 17.0036 63.3526 17.0426 63.1532 17.0426C62.8152 17.0426 62.5292 16.943 62.2952 16.7436C62.0612 16.5443 61.9052 16.293 61.8272 15.9896C61.3332 16.3623 60.7959 16.657 60.2152 16.8736C59.6432 17.0903 59.0409 17.1986 58.4082 17.1986C57.5589 17.1986 56.7572 17.0383 56.0032 16.7176C55.2579 16.3883 54.6036 15.942 54.0402 15.3786C53.4769 14.8153 53.0306 14.1566 52.7012 13.4026C52.3719 12.6486 52.2072 11.847 52.2072 10.9976ZM55.0282 10.9976C55.0282 11.457 55.1149 11.8946 55.2882 12.3106C55.4702 12.718 55.7129 13.0776 56.0162 13.3896C56.3282 13.693 56.6879 13.9356 57.0952 14.1176C57.5026 14.291 57.9402 14.3776 58.4082 14.3776C58.8762 14.3776 59.3139 14.291 59.7212 14.1176C60.1372 13.9356 60.4969 13.693 60.8002 13.3896C61.1036 13.0776 61.3419 12.718 61.5152 12.3106C61.6886 11.8946 61.7752 11.457 61.7752 10.9976C61.7752 10.5296 61.6886 10.092 61.5152 9.68464C61.3419 9.26864 61.1036 8.90898 60.8002 8.60564C60.4969 8.30231 60.1372 8.06398 59.7212 7.89064C59.3139 7.70864 58.8762 7.61764 58.4082 7.61764C57.9489 7.61764 57.5112 7.70864 57.0952 7.89064C56.6879 8.06398 56.3282 8.30231 56.0162 8.60564C55.7129 8.90898 55.4702 9.26864 55.2882 9.68464C55.1149 10.092 55.0282 10.5296 55.0282 10.9976Z" fill="white"/>
<path d="M73.6438 10.9976C73.6525 10.9976 73.6568 11.002 73.6568 11.0106C73.6568 11.418 73.7392 11.821 73.9038 12.2196C74.0685 12.6096 74.2938 12.965 74.5798 13.2856C74.8745 13.5976 75.2168 13.8533 75.6068 14.0526C75.9968 14.252 76.4172 14.356 76.8678 14.3646C77.2838 14.382 77.6782 14.33 78.0508 14.2086C78.4322 14.0786 78.8135 13.862 79.1948 13.5586C79.3335 13.446 79.4852 13.3376 79.6498 13.2336C79.8232 13.121 80.0008 13.043 80.1828 12.9996C80.3735 12.9563 80.5728 12.9606 80.7808 13.0126C80.9888 13.056 81.2098 13.1773 81.4438 13.3766C81.5912 13.5066 81.6995 13.6626 81.7688 13.8446C81.8468 14.018 81.8815 14.2043 81.8728 14.4036C81.8728 14.5943 81.8295 14.7893 81.7428 14.9886C81.6648 15.1793 81.5435 15.357 81.3788 15.5216C80.8415 16.0676 80.2002 16.4836 79.4548 16.7696C78.7182 17.0556 77.9425 17.1986 77.1278 17.1986C76.2612 17.1986 75.4465 17.0426 74.6838 16.7306C73.9212 16.41 73.2538 15.9723 72.6818 15.4176C72.1098 14.863 71.6592 14.213 71.3298 13.4676C71.0005 12.7136 70.8358 11.9033 70.8358 11.0366C70.8358 11.0366 70.8402 11.028 70.8488 11.0106H70.8358C70.8358 10.144 71.0005 9.33365 71.3298 8.57965C71.6592 7.81698 72.1098 7.15831 72.6818 6.60364C73.2538 6.04031 73.9212 5.59831 74.6838 5.27764C75.4465 4.95698 76.2612 4.79664 77.1278 4.79664C77.9425 4.79664 78.7182 4.93531 79.4548 5.21264C80.2002 5.48131 80.8415 5.88864 81.3788 6.43464C81.5435 6.60798 81.6692 6.78998 81.7558 6.98064C81.8425 7.17131 81.8858 7.36631 81.8858 7.56564C81.8945 7.75631 81.8598 7.94264 81.7818 8.12464C81.7038 8.29798 81.5868 8.45398 81.4308 8.59264C81.2055 8.79198 80.9888 8.91764 80.7808 8.96964C80.5728 9.01298 80.3735 9.01298 80.1828 8.96964C80.0008 8.91764 79.8232 8.83964 79.6498 8.73564C79.4852 8.62298 79.3335 8.51031 79.1948 8.39764C78.8135 8.09431 78.4322 7.88631 78.0508 7.77364C77.6782 7.65231 77.2838 7.60031 76.8678 7.61764C76.4258 7.63498 76.0098 7.74331 75.6198 7.94264C75.2298 8.13331 74.8875 8.38898 74.5928 8.70964C74.3068 9.02164 74.0772 9.37698 73.9038 9.77564C73.7392 10.1656 73.6568 10.5686 73.6568 10.9846L73.6438 10.9976Z" fill="white"/>
<path d="M86.5303 15.6516C86.5303 15.851 86.4913 16.0373 86.4133 16.2106C86.3439 16.3753 86.2486 16.5183 86.1273 16.6396C86.0059 16.761 85.8629 16.8606 85.6983 16.9386C85.5336 17.008 85.3559 17.0426 85.1653 17.0426C84.9659 17.0426 84.7753 17.008 84.5933 16.9386C84.4199 16.8606 84.2683 16.761 84.1383 16.6396C84.0083 16.5183 83.9043 16.3753 83.8263 16.2106C83.7483 16.0373 83.7093 15.851 83.7093 15.6516V11.4526C83.7093 10.56 83.8783 9.71931 84.2163 8.93064C84.5629 8.14198 85.0309 7.45298 85.6203 6.86364C86.2096 6.27431 86.8986 5.81064 87.6873 5.47264C88.4759 5.12598 89.3123 4.95264 90.1963 4.95264H90.2223C90.6903 4.95264 91.0499 5.08698 91.3013 5.35564C91.5613 5.61564 91.6913 5.94931 91.6913 6.35664C91.6913 6.55598 91.6523 6.74231 91.5743 6.91564C91.4963 7.08898 91.3879 7.24064 91.2493 7.37064C91.1193 7.49198 90.9633 7.59164 90.7813 7.66964C90.6079 7.73898 90.4216 7.77364 90.2223 7.77364H90.1963C89.7023 7.77364 89.2299 7.86898 88.7793 8.05964C88.3373 8.25031 87.9516 8.51031 87.6223 8.83964C87.2929 9.16898 87.0286 9.55464 86.8293 9.99664C86.6299 10.4386 86.5303 10.911 86.5303 11.4136V15.6516Z" fill="white"/>
<path d="M95.2846 12.2586C95.3972 12.588 95.5532 12.8826 95.7526 13.1426C95.9606 13.4026 96.1989 13.628 96.4676 13.8186C96.7362 14.0006 97.0309 14.1436 97.3516 14.2476C97.6722 14.343 98.0102 14.3906 98.3656 14.3906C99.2582 14.3906 99.9602 14.1566 100.472 13.6886C100.732 13.5066 100.979 13.3983 101.213 13.3636C101.447 13.329 101.668 13.3463 101.876 13.4156C102.023 13.4676 102.153 13.55 102.266 13.6626C102.387 13.7666 102.487 13.8836 102.565 14.0136C102.651 14.1523 102.712 14.304 102.747 14.4686C102.79 14.6246 102.799 14.785 102.773 14.9496C102.755 15.1143 102.703 15.279 102.617 15.4436C102.539 15.5996 102.417 15.7426 102.253 15.8726C102.062 16.046 101.845 16.215 101.603 16.3796C101.36 16.5356 101.078 16.6743 100.758 16.7956C100.446 16.917 100.09 17.0123 99.6916 17.0816C99.3016 17.1596 98.8596 17.1986 98.3656 17.1986C97.5076 17.1986 96.7016 17.0383 95.9476 16.7176C95.1936 16.3883 94.5349 15.942 93.9716 15.3786C93.4082 14.8153 92.9619 14.161 92.6326 13.4156C92.3032 12.6616 92.1386 11.8556 92.1386 10.9976C92.1386 10.1396 92.3032 9.33365 92.6326 8.57965C92.9619 7.82565 93.4082 7.17131 93.9716 6.61664C94.5349 6.05331 95.1936 5.61131 95.9476 5.29064C96.7016 4.96131 97.5076 4.79664 98.3656 4.79664C99.2149 4.79664 100.012 4.95698 100.758 5.27764C101.512 5.59831 102.17 6.03598 102.734 6.59064C103.306 7.13664 103.756 7.78231 104.086 8.52765C104.415 9.27298 104.588 10.0703 104.606 10.9196C104.606 11.3183 104.476 11.6433 104.216 11.8946C103.964 12.1373 103.631 12.2586 103.215 12.2586H95.2846ZM101.707 9.91864C101.611 9.56331 101.46 9.24264 101.252 8.95664C101.044 8.67064 100.797 8.42798 100.511 8.22864C100.225 8.02931 99.9039 7.87764 99.5486 7.77364C99.2019 7.66964 98.8292 7.61764 98.4306 7.61764C98.0319 7.61764 97.6549 7.67398 97.2996 7.78664C96.9529 7.89931 96.6366 8.05531 96.3506 8.25464C96.0732 8.45398 95.8349 8.69664 95.6356 8.98265C95.4362 9.25998 95.2889 9.57198 95.1936 9.91864H101.707Z" fill="white"/>
<path d="M105.697 10.9976C105.697 10.1396 105.862 9.33798 106.191 8.59264C106.52 7.83864 106.967 7.17998 107.53 6.61664C108.093 6.05331 108.748 5.61131 109.493 5.29064C110.247 4.96131 111.049 4.79664 111.898 4.79664C112.756 4.79664 113.558 4.96131 114.303 5.29064C115.057 5.61131 115.711 6.05331 116.266 6.61664C116.829 7.17998 117.271 7.83864 117.592 8.59264C117.921 9.33798 118.086 10.1396 118.086 10.9976V15.5996C118.086 15.799 118.047 15.9853 117.969 16.1586C117.9 16.332 117.8 16.4836 117.67 16.6136C117.54 16.7436 117.384 16.8476 117.202 16.9256C117.029 17.0036 116.842 17.0426 116.643 17.0426C116.305 17.0426 116.019 16.943 115.785 16.7436C115.551 16.5443 115.395 16.293 115.317 15.9896C114.823 16.3623 114.286 16.657 113.705 16.8736C113.133 17.0903 112.531 17.1986 111.898 17.1986C111.049 17.1986 110.247 17.0383 109.493 16.7176C108.748 16.3883 108.093 15.942 107.53 15.3786C106.967 14.8153 106.52 14.1566 106.191 13.4026C105.862 12.6486 105.697 11.847 105.697 10.9976ZM108.518 10.9976C108.518 11.457 108.605 11.8946 108.778 12.3106C108.96 12.718 109.203 13.0776 109.506 13.3896C109.818 13.693 110.178 13.9356 110.585 14.1176C110.992 14.291 111.43 14.3776 111.898 14.3776C112.366 14.3776 112.804 14.291 113.211 14.1176C113.627 13.9356 113.987 13.693 114.29 13.3896C114.593 13.0776 114.832 12.718 115.005 12.3106C115.178 11.8946 115.265 11.457 115.265 10.9976C115.265 10.5296 115.178 10.092 115.005 9.68464C114.832 9.26864 114.593 8.90898 114.29 8.60564C113.987 8.30231 113.627 8.06398 113.211 7.89064C112.804 7.70864 112.366 7.61764 111.898 7.61764C111.439 7.61764 111.001 7.70864 110.585 7.89064C110.178 8.06398 109.818 8.30231 109.506 8.60564C109.203 8.90898 108.96 9.26864 108.778 9.68464C108.605 10.092 108.518 10.5296 108.518 10.9976Z" fill="white"/>
<path d="M123.413 4.95264H127.937C128.128 4.95264 128.31 4.99164 128.483 5.06964C128.656 5.14764 128.808 5.25164 128.938 5.38164C129.068 5.51164 129.172 5.66331 129.25 5.83664C129.328 6.00998 129.367 6.19198 129.367 6.38264C129.367 6.57331 129.328 6.75531 129.25 6.92864C129.181 7.09331 129.081 7.24064 128.951 7.37064C128.821 7.49198 128.669 7.59164 128.496 7.66964C128.323 7.73898 128.136 7.77364 127.937 7.77364H123.413V11.0626C123.413 11.522 123.5 11.9553 123.673 12.3626C123.855 12.7613 124.098 13.1123 124.401 13.4156C124.704 13.7103 125.06 13.9443 125.467 14.1176C125.883 14.291 126.325 14.3776 126.793 14.3776C127.209 14.3776 127.595 14.3213 127.95 14.2086C128.305 14.0873 128.635 13.8923 128.938 13.6236C129.033 13.537 129.124 13.4633 129.211 13.4026C129.306 13.3333 129.415 13.277 129.536 13.2336C129.753 13.1556 129.978 13.134 130.212 13.1686C130.446 13.1946 130.667 13.303 130.875 13.4936C131.031 13.641 131.139 13.81 131.2 14.0006C131.269 14.1826 131.295 14.3776 131.278 14.5856C131.269 14.785 131.222 14.98 131.135 15.1706C131.048 15.3613 130.927 15.5303 130.771 15.6776C130.251 16.1803 129.653 16.5616 128.977 16.8216C128.301 17.073 127.573 17.1986 126.793 17.1986C125.935 17.1986 125.129 17.0383 124.375 16.7176C123.63 16.397 122.975 15.9593 122.412 15.4046C121.849 14.85 121.402 14.2 121.073 13.4546C120.752 12.7006 120.592 11.8946 120.592 11.0366V2.69064C120.592 2.49131 120.627 2.30498 120.696 2.13164C120.774 1.95831 120.878 1.80664 121.008 1.67664C121.138 1.54664 121.29 1.44698 121.463 1.37764C121.636 1.29964 121.823 1.26064 122.022 1.26064C122.213 1.26064 122.39 1.29964 122.555 1.37764C122.728 1.44698 122.876 1.54664 122.997 1.67664C123.127 1.80664 123.227 1.95831 123.296 2.13164C123.374 2.30498 123.413 2.49131 123.413 2.69064V4.95264Z" fill="white"/>
<path d="M134.975 10.9976C134.975 11.457 135.062 11.8946 135.235 12.3106C135.417 12.718 135.66 13.0776 135.963 13.3896C136.275 13.693 136.635 13.9356 137.042 14.1176C137.45 14.291 137.887 14.3776 138.355 14.3776C138.823 14.3776 139.261 14.291 139.668 14.1176C140.084 13.9356 140.444 13.693 140.747 13.3896C141.051 13.0776 141.289 12.718 141.462 12.3106C141.636 11.8946 141.722 11.457 141.722 10.9976C141.722 10.5296 141.636 10.092 141.462 9.68464C141.289 9.26864 141.051 8.90898 140.747 8.60564C140.444 8.30231 140.084 8.06398 139.668 7.89064C139.261 7.70864 138.823 7.61764 138.355 7.61764C137.896 7.61764 137.458 7.70864 137.042 7.89064C136.635 8.06398 136.275 8.30231 135.963 8.60564C135.66 8.90898 135.417 9.26864 135.235 9.68464C135.062 10.092 134.975 10.5296 134.975 10.9976ZM132.154 10.9976C132.154 10.1396 132.319 9.33798 132.648 8.59264C132.978 7.83864 133.424 7.17998 133.987 6.61664C134.551 6.05331 135.205 5.61131 135.95 5.29064C136.704 4.96131 137.506 4.79664 138.355 4.79664C139.213 4.79664 140.015 4.96131 140.76 5.29064C141.514 5.61131 142.169 6.05331 142.723 6.61664C143.287 7.17998 143.729 7.83864 144.049 8.59264C144.379 9.33798 144.543 10.1396 144.543 10.9976C144.543 11.847 144.379 12.6486 144.049 13.4026C143.729 14.1566 143.287 14.8153 142.723 15.3786C142.169 15.942 141.514 16.3883 140.76 16.7176C140.015 17.0383 139.213 17.1986 138.355 17.1986C137.506 17.1986 136.704 17.0383 135.95 16.7176C135.205 16.3883 134.551 15.942 133.987 15.3786C133.424 14.8153 132.978 14.1566 132.648 13.4026C132.319 12.6486 132.154 11.847 132.154 10.9976Z" fill="white"/>
<path d="M149.067 15.6516C149.067 15.851 149.028 16.0373 148.95 16.2106C148.881 16.3753 148.786 16.5183 148.664 16.6396C148.543 16.761 148.4 16.8606 148.235 16.9386C148.071 17.008 147.893 17.0426 147.702 17.0426C147.503 17.0426 147.312 17.008 147.13 16.9386C146.957 16.8606 146.805 16.761 146.675 16.6396C146.545 16.5183 146.441 16.3753 146.363 16.2106C146.285 16.0373 146.246 15.851 146.246 15.6516V11.4526C146.246 10.56 146.415 9.71931 146.753 8.93064C147.1 8.14198 147.568 7.45298 148.157 6.86364C148.747 6.27431 149.436 5.81064 150.224 5.47264C151.013 5.12598 151.849 4.95264 152.733 4.95264H152.759C153.227 4.95264 153.587 5.08698 153.838 5.35564C154.098 5.61564 154.228 5.94931 154.228 6.35664C154.228 6.55598 154.189 6.74231 154.111 6.91564C154.033 7.08898 153.925 7.24064 153.786 7.37064C153.656 7.49198 153.5 7.59164 153.318 7.66964C153.145 7.73898 152.959 7.77364 152.759 7.77364H152.733C152.239 7.77364 151.767 7.86898 151.316 8.05964C150.874 8.25031 150.489 8.51031 150.159 8.83964C149.83 9.16898 149.566 9.55464 149.366 9.99664C149.167 10.4386 149.067 10.911 149.067 11.4136V15.6516Z" fill="white"/>
<path d="M158.594 11.9596C158.222 11.8036 157.836 11.6346 157.437 11.4526C157.039 11.262 156.675 11.0323 156.345 10.7636C156.016 10.4863 155.743 10.157 155.526 9.77564C155.318 9.39431 155.214 8.93931 155.214 8.41064C155.214 7.86464 155.323 7.37064 155.539 6.92864C155.756 6.47798 156.055 6.09664 156.436 5.78464C156.826 5.46398 157.286 5.22131 157.814 5.05664C158.343 4.88331 158.924 4.79664 159.556 4.79664C159.92 4.79664 160.297 4.82698 160.687 4.88764C161.077 4.93964 161.446 5.03064 161.792 5.16064C162.148 5.28198 162.464 5.44664 162.741 5.65464C163.019 5.85398 163.231 6.09664 163.378 6.38264C163.508 6.65998 163.552 6.93731 163.508 7.21464C163.474 7.48331 163.378 7.70431 163.222 7.87764C163.049 8.07698 162.837 8.21131 162.585 8.28064C162.334 8.34998 162.083 8.32831 161.831 8.21564C161.649 8.10298 161.48 8.00331 161.324 7.91664C161.177 7.82998 161.021 7.75631 160.856 7.69564C160.7 7.63498 160.531 7.59164 160.349 7.56564C160.176 7.53098 159.977 7.51364 159.751 7.51364C159.188 7.51364 158.759 7.59164 158.464 7.74764C158.178 7.89498 158.035 8.12464 158.035 8.43664C158.035 8.60131 158.087 8.73998 158.191 8.85264C158.304 8.95664 158.451 9.05198 158.633 9.13865C158.824 9.22531 159.049 9.30764 159.309 9.38564C159.578 9.46364 159.868 9.55031 160.18 9.64565C160.692 9.80165 161.177 9.98364 161.636 10.1916C162.104 10.3996 162.512 10.6553 162.858 10.9586C163.214 11.2533 163.495 11.6043 163.703 12.0116C163.911 12.419 164.015 12.9 164.015 13.4546C164.015 13.9746 163.903 14.4643 163.677 14.9236C163.461 15.3743 163.157 15.7686 162.767 16.1066C162.377 16.4446 161.909 16.7133 161.363 16.9126C160.826 17.1033 160.241 17.1986 159.608 17.1986C159.21 17.1986 158.785 17.1596 158.334 17.0816C157.892 17.0123 157.459 16.891 157.034 16.7176C156.618 16.5356 156.233 16.306 155.877 16.0286C155.522 15.7426 155.236 15.3916 155.019 14.9756C154.803 14.5596 154.733 14.1913 154.811 13.8706C154.898 13.5413 155.071 13.2943 155.331 13.1296C155.591 12.965 155.908 12.9043 156.28 12.9476C156.653 12.991 157.017 13.1773 157.372 13.5066C157.476 13.6366 157.606 13.7623 157.762 13.8836C157.918 13.9963 158.092 14.1003 158.282 14.1956C158.473 14.2823 158.677 14.3516 158.893 14.4036C159.119 14.4556 159.353 14.4816 159.595 14.4816C159.812 14.4816 160.016 14.46 160.206 14.4166C160.397 14.3646 160.566 14.2953 160.713 14.2086C160.861 14.122 160.978 14.018 161.064 13.8966C161.151 13.7753 161.194 13.6366 161.194 13.4806C161.194 13.2986 161.099 13.134 160.908 12.9866C160.718 12.8306 160.484 12.6876 160.206 12.5576C159.938 12.4276 159.652 12.315 159.348 12.2196C159.054 12.1156 158.802 12.029 158.594 11.9596Z" fill="white"/>
</svg>
