<svg width="96" height="76" viewBox="0 0 96 76" fill="none" xmlns="http://www.w3.org/2000/svg">
<path d="M45 12C35 19.8333 29.3333 29.0833 28 39.75L42 51.75C41.1667 56.5833 38.8333 61.3333 35 66C31.1667 70.5 26.6667 73.5833 21.5 75.25C7.5 69.5833 0.5 60.3333 0.5 47.5C0.5 38.8333 3.75 30.25 10.25 21.75C16.75 13.25 25.4167 6.33333 36.25 1L45 12ZM95.25 12C85.25 19.8333 79.5833 29.0833 78.25 39.75L92.25 51.75C91.4167 56.5833 89.0833 61.3333 85.25 66C81.4167 70.5 76.9167 73.5833 71.75 75.25C57.75 69.5833 50.75 60.3333 50.75 47.5C50.75 38.8333 54 30.25 60.5 21.75C67 13.25 75.6667 6.33333 86.5 1L95.25 12Z" fill="white" fill-opacity="0.01"/>
<path fill-rule="evenodd" clip-rule="evenodd" d="M36.362 0.5L45.5635 12.0676L45.2463 12.3161C35.3801 20.0446 29.79 29.1344 28.4237 39.5879L42.4324 51.5953L42.3938 51.8192C41.5463 56.7349 39.1759 61.5472 35.3087 66.2551L35.3041 66.2606C31.4271 70.8119 26.866 73.9404 21.6224 75.6319L21.4842 75.6765L21.3495 75.622C14.3024 72.7696 8.98551 69.0026 5.43065 64.3051C1.87246 59.6032 0.0996094 53.9952 0.0996094 47.5012C0.0996094 38.7278 3.39131 30.0613 9.93187 21.5082C16.4739 12.9533 25.1914 5.99938 36.0729 0.642334L36.362 0.5ZM86.612 0.5L95.8135 12.0676L95.4963 12.3161C85.6301 20.0446 80.04 29.1344 78.6737 39.5879L92.6824 51.5953L92.6438 51.8192C91.7962 56.7349 89.4259 61.5472 85.5587 66.2551L85.5541 66.2606C81.6771 70.8119 77.116 73.9404 71.8724 75.6319L71.7342 75.6765L71.5995 75.622C64.5524 72.7696 59.2355 69.0026 55.6807 64.3051C52.1225 59.6032 50.3496 53.9952 50.3496 47.5012C50.3496 38.7278 53.6413 30.0613 60.1819 21.5082C66.7239 12.9533 75.4414 5.99938 86.3229 0.642334L86.612 0.5ZM36.1375 1.50285C25.4872 6.79282 16.9676 13.6246 10.5674 21.9942C4.10791 30.4411 0.89961 38.9413 0.89961 47.5012C0.89961 53.8405 2.62676 59.2742 6.06857 63.8223C9.49139 68.3453 14.6298 72.0183 21.5148 74.8256C26.5458 73.1739 30.938 70.1514 34.6929 65.7444C38.4314 61.1924 40.7142 56.5799 41.5659 51.9063L27.576 39.915L27.6027 39.7016C28.9373 29.0249 34.5658 19.7688 44.4365 11.9358L36.1375 1.50285ZM86.3875 1.50285C75.7372 6.79282 67.2176 13.6246 60.8174 21.9942C54.3579 30.4411 51.1496 38.9413 51.1496 47.5012C51.1496 53.8405 52.8768 59.2742 56.3186 63.8223C59.7414 68.3453 64.8798 72.0183 71.7648 74.8256C76.7958 73.1739 81.188 70.1514 84.9429 65.7444C88.6814 61.1924 90.9642 56.5799 91.8159 51.9063L77.826 39.915L77.8527 39.7016C79.1873 29.0249 84.8158 19.7688 94.6865 11.9358L86.3875 1.50285Z" fill="white"/>
</svg>
